<?xml version="1.0" standalone="no"?>
<!DOCTYPE svg PUBLIC "-//W3C//DTD SVG 20010904//EN"
 "http://www.w3.org/TR/2001/REC-SVG-20010904/DTD/svg10.dtd">
<svg version="1.0" xmlns="http://www.w3.org/2000/svg"
 width="722.000000pt" height="172.000000pt" viewBox="0 0 722.000000 172.000000"
 preserveAspectRatio="xMidYMid meet">

<g transform="translate(0.000000,172.000000) scale(0.100000,-0.100000)"
fill="#000000" stroke="none">
<path d="M6338 1682 c-29 -15 -46 -43 -130 -215 l-97 -198 -38 18 c-31 14 -77
18 -246 21 l-208 4 8 -29 c10 -36 10 -819 0 -855 l-7 -28 173 0 173 0 260
-126 c142 -69 270 -131 284 -137 33 -15 -1367 -24 -4327 -26 l-2183 -1 0 -52
0 -51 2552 6 c1403 4 3028 7 3610 7 l1058 0 0 50 0 50 -292 0 c-277 0 -290 1
-275 18 8 9 133 262 277 561 317 658 306 588 112 685 -218 109 -615 298 -644
306 -18 6 -37 3 -60 -8z m590 -443 c85 -39 95 -52 65 -87 -18 -20 -22 -18
-328 130 -170 82 -314 153 -318 157 -5 5 -2 22 7 39 l16 31 237 -116 c131 -63
275 -133 321 -154z m-110 -170 c56 -26 102 -53 102 -59 0 -9 -16 -47 -25 -58
-3 -3 -628 297 -638 307 -5 5 -2 22 7 39 l16 31 217 -106 c120 -58 264 -127
321 -154z m-810 44 c21 -18 20 -19 -63 -190 -46 -95 -86 -173 -89 -173 -3 0
-6 86 -6 190 l0 190 69 0 c51 0 74 -5 89 -17z m553 -144 c151 -72 275 -132
277 -134 4 -4 -27 -65 -32 -65 -2 0 -111 51 -242 114 -234 112 -239 115 -261
158 -22 42 -27 58 -19 58 2 0 127 -59 277 -131z m-442 -56 c1 -15 -25 -17 -34
-3 -3 5 0 18 7 30 12 18 13 19 20 2 3 -9 7 -23 7 -29z m428 -160 c180 -87 202
-100 197 -118 -4 -11 -9 -23 -13 -28 -4 -4 -96 35 -204 88 -191 92 -197 96
-197 125 0 16 3 30 8 30 4 0 98 -44 209 -97z m-472 20 c39 -19 40 -21 23 -58
-14 -30 -14 -30 -66 -5 l-42 21 15 29 c18 35 22 36 70 13z m411 -199 c98 -47
180 -87 182 -89 4 -4 -27 -65 -32 -65 -2 0 -59 28 -127 61 -68 34 -148 72
-176 85 -29 12 -53 27 -53 33 0 13 18 61 23 61 2 0 85 -39 183 -86z"/>
<path d="M2350 1323 c-55 -7 -63 -19 -58 -90 2 -34 6 -64 8 -67 3 -2 56 -2
118 1 l112 6 0 63 c0 81 -12 95 -88 92 -31 0 -73 -3 -92 -5z"/>
<path d="M3720 1320 c-94 -13 -166 -47 -234 -110 -104 -97 -146 -202 -146
-361 0 -302 228 -501 528 -461 92 12 192 53 227 92 19 21 19 23 -10 106 l-29
84 -31 -30 c-83 -80 -232 -100 -334 -45 -63 35 -91 67 -91 107 0 41 40 75 107
88 67 14 131 6 201 -25 l52 -24 0 104 c0 102 -1 105 -27 122 -17 12 -52 19
-97 21 -63 3 -78 0 -126 -25 -66 -35 -116 -108 -126 -186 -10 -70 -26 -44 -32
50 -5 93 7 145 51 209 87 130 292 147 418 36 l36 -31 26 78 c15 43 27 83 27
90 0 21 -84 72 -149 91 -80 23 -168 30 -241 20z"/>
<path d="M5277 1319 c-89 -13 -178 -62 -245 -133 -69 -75 -104 -137 -131 -236
-36 -129 -25 -352 25 -502 l16 -48 129 0 129 0 -25 39 c-31 46 -63 128 -74
188 l-8 43 129 0 130 0 -4 -118 c-3 -64 -8 -125 -12 -135 -8 -16 2 -17 122
-17 l130 0 -14 38 c-10 28 -13 127 -14 424 0 384 0 387 -22 407 -44 42 -163
65 -261 50z m73 -329 l0 -140 -129 0 -130 0 15 53 c20 68 49 125 82 161 32 34
96 65 135 66 l27 0 0 -140z"/>
<path d="M80 1200 c0 -60 2 -110 4 -110 2 0 23 9 47 20 31 14 66 20 117 20
l73 0 -3 -342 c-2 -256 -6 -349 -16 -366 l-13 -22 132 0 c121 0 131 1 123 17
-5 10 -10 174 -12 366 l-3 347 73 0 c51 0 86 -6 117 -20 24 -11 44 -20 46 -20
2 0 3 50 3 110 l-1 110 -343 0 -344 0 0 -110z"/>
<path d="M807 1283 c10 -36 10 -820 0 -855 l-7 -28 130 0 131 0 -13 22 c-9 16
-13 73 -13 188 l0 165 123 3 122 3 0 -165 c0 -91 -4 -176 -10 -190 l-10 -26
131 0 c122 0 131 1 123 18 -13 25 -17 830 -5 864 l10 28 -131 0 c-121 0 -130
-1 -122 -17 5 -10 10 -91 12 -180 l3 -163 -127 0 -126 0 4 158 c2 101 8 165
16 180 l13 22 -131 0 -130 0 7 -27z"/>
<path d="M1566 1293 c13 -25 17 -831 5 -865 l-10 -28 129 0 130 0 -9 23 c-11
28 -22 455 -12 461 10 6 161 -424 161 -456 l0 -28 146 0 146 0 -27 31 c-14 18
-37 53 -49 78 -29 57 -96 228 -96 245 0 7 18 21 40 31 92 41 145 139 138 252
-7 114 -60 192 -167 242 -55 25 -61 26 -295 29 -227 3 -238 2 -230 -15z m427
-174 c38 -19 57 -51 57 -97 0 -37 -6 -50 -34 -78 -34 -34 -35 -34 -125 -34
l-91 0 0 110 0 110 86 0 c47 0 95 -5 107 -11z"/>
<path d="M2568 1283 c37 -53 59 -112 176 -493 35 -113 76 -247 92 -297 l27
-93 91 0 91 0 67 118 c139 245 192 399 193 562 0 110 -11 160 -46 204 -20 25
-25 26 -125 26 -57 0 -104 -2 -104 -4 0 -2 11 -27 25 -54 33 -66 46 -166 35
-259 -14 -108 -72 -263 -98 -263 -8 0 -125 376 -143 458 -11 51 -10 66 6 105
7 16 -4 17 -150 17 l-156 0 19 -27z"/>
<path d="M4137 1288 c10 -30 11 -836 0 -865 l-8 -23 130 0 131 0 -12 28 c-14
33 -24 422 -11 422 5 0 30 -48 55 -107 l46 -108 52 -3 c83 -5 145 22 217 93
53 53 64 71 83 134 56 184 -20 356 -188 423 -52 21 -76 23 -280 26 l-224 3 9
-23z m413 -173 c92 -48 106 -202 25 -274 -65 -57 -161 -36 -199 43 -12 25 -16
63 -16 140 l0 106 80 0 c52 0 91 -5 110 -15z"/>
<path d="M2353 1093 l-53 -4 1 -87 c0 -48 4 -206 8 -350 l8 -264 59 -59 58
-59 59 57 59 58 -7 350 c-4 193 -9 353 -12 358 -4 7 -76 7 -180 0z"/>
</g>
</svg>
