<?xml version="1.0" standalone="no"?>
<!DOCTYPE svg PUBLIC "-//W3C//DTD SVG 20010904//EN"
 "http://www.w3.org/TR/2001/REC-SVG-20010904/DTD/svg10.dtd">
<svg version="1.0" xmlns="http://www.w3.org/2000/svg"
 width="212.000000pt" height="212.000000pt" viewBox="0 0 212.000000 212.000000"
 preserveAspectRatio="xMidYMid meet">

<g transform="translate(0.000000,212.000000) scale(0.100000,-0.100000)"
fill="#000000" stroke="none">
<path d="M898 2088 c-2 -19 -12 -25 -51 -32 -41 -7 -50 -6 -61 9 -15 21 -36
12 -36 -14 0 -12 -14 -24 -43 -35 -53 -20 -63 -20 -71 -1 -9 23 -38 6 -32 -19
4 -17 -4 -26 -44 -48 -42 -23 -50 -25 -60 -12 -10 11 -16 12 -26 3 -10 -8 -11
-15 -4 -24 8 -9 -2 -22 -35 -50 -38 -31 -48 -35 -61 -24 -20 16 -43 -3 -27
-23 16 -18 -62 -107 -79 -90 -18 18 -40 -5 -26 -27 16 -26 -39 -103 -68 -96
-14 3 -24 -1 -28 -11 -9 -22 -8 -24 9 -24 20 0 19 -2 -10 -61 -20 -39 -30 -49
-44 -44 -24 7 -36 -21 -14 -34 15 -8 15 -13 1 -62 -13 -45 -19 -54 -37 -52
-15 2 -21 -3 -21 -17 0 -12 7 -20 16 -20 14 0 15 -7 10 -37 -3 -21 -6 -48 -6
-60 0 -16 -6 -23 -19 -23 -27 0 -36 -30 -11 -37 17 -5 20 -14 20 -64 0 -52 -2
-59 -20 -59 -13 0 -18 -5 -14 -15 4 -8 12 -15 19 -15 19 0 22 -7 30 -67 6 -45
4 -53 -9 -53 -25 0 -20 -38 5 -42 16 -2 26 -16 37 -52 14 -44 14 -49 -1 -57
-21 -12 -10 -41 13 -34 13 4 23 -7 43 -47 23 -46 24 -53 10 -63 -20 -15 -8
-37 19 -33 14 2 29 -10 50 -39 26 -36 29 -45 18 -58 -17 -21 3 -46 22 -27 9 9
22 3 55 -30 39 -39 41 -43 27 -59 -14 -16 -14 -18 4 -28 16 -8 21 -7 26 5 5
12 14 9 51 -18 36 -26 44 -38 40 -56 -6 -26 22 -43 35 -21 13 21 106 -33 102
-60 -4 -25 18 -38 32 -19 11 14 17 14 64 -1 42 -13 52 -20 48 -34 -6 -24 22
-34 37 -13 11 15 19 15 65 5 39 -10 52 -17 52 -31 0 -11 7 -18 20 -18 11 0 20
7 20 15 0 11 12 15 44 15 54 0 76 -8 76 -26 0 -22 27 -17 33 6 4 17 14 20 61
20 43 0 56 -3 56 -15 0 -24 38 -18 42 7 4 29 97 56 111 33 13 -23 37 -18 37 8
0 18 10 26 51 41 40 14 53 15 59 5 12 -18 42 -3 36 19 -8 24 79 78 100 62 18
-16 36 -3 29 20 -8 25 74 94 93 78 18 -15 40 6 25 24 -8 10 -1 24 27 57 32 36
41 42 53 33 11 -10 17 -9 28 4 11 13 10 17 -2 25 -22 13 32 105 60 101 25 -4
35 12 21 35 -9 14 -7 29 9 66 17 40 24 47 41 42 15 -5 20 -2 20 13 0 11 -6 22
-14 25 -12 5 -11 14 2 61 13 47 18 55 34 50 13 -4 18 0 18 15 0 13 -6 21 -16
21 -13 0 -15 7 -10 31 3 17 6 44 6 60 0 22 5 29 20 29 26 0 27 36 2 42 -15 4
-19 16 -21 58 -1 44 1 53 19 57 26 7 26 33 1 33 -25 0 -27 4 -36 68 -6 45 -5
52 10 52 10 0 15 6 13 18 -2 9 -12 17 -22 17 -13 0 -24 15 -37 50 -23 61 -23
65 -3 65 9 0 14 7 12 18 -3 11 -12 16 -26 15 -17 -2 -27 8 -46 46 -21 41 -23
50 -11 62 9 9 11 19 5 28 -7 13 -11 13 -25 1 -15 -12 -18 -12 -25 0 -5 8 -20
31 -35 50 -23 31 -24 36 -10 46 13 10 13 13 1 23 -7 6 -21 9 -30 5 -24 -9 -99
65 -84 83 17 21 -6 41 -26 24 -13 -11 -23 -7 -58 20 -24 18 -45 34 -47 36 -2
1 2 9 9 18 10 12 9 16 -4 21 -9 3 -23 1 -31 -6 -20 -17 -109 35 -102 61 6 23
-22 34 -37 14 -10 -13 -17 -13 -64 2 -38 12 -51 21 -47 32 3 8 0 18 -7 23 -19
12 -25 10 -31 -11 -4 -16 -10 -18 -48 -10 -24 4 -50 8 -56 9 -7 0 -13 9 -13
20 0 13 -7 20 -20 20 -11 0 -20 -7 -20 -15 0 -12 -15 -15 -77 -15 -43 0 -88
-3 -100 -6 -19 -5 -23 -2 -23 15 0 30 -38 29 -42 -1z m284 -261 c408 -313 579
-445 606 -470 26 -25 32 -38 32 -73 0 -46 48 21 -524 -724 -104 -135 -198
-255 -209 -267 -29 -32 -80 -40 -115 -18 -15 10 -172 130 -349 266 -336 260
-347 271 -328 329 4 11 143 197 309 413 434 564 435 565 449 570 38 16 87 6
129 -26z"/>
<path d="M1047 1646 c-20 -29 -47 -5 293 -266 124 -95 231 -177 238 -183 14
-11 52 17 52 38 0 11 -525 420 -553 431 -8 3 -21 -6 -30 -20z"/>
<path d="M924 1485 c-9 -14 -15 -27 -13 -29 6 -5 479 -368 522 -401 l39 -29
19 25 c10 13 18 27 16 31 -3 10 -548 428 -558 428 -5 0 -16 -11 -25 -25z"/>
<path d="M807 1332 c-10 -10 -17 -23 -17 -28 0 -5 49 -46 108 -91 59 -45 184
-141 277 -212 94 -72 172 -131 175 -131 7 1 43 51 38 54 -1 1 -73 56 -158 122
-257 199 -396 304 -401 304 -3 0 -13 -8 -22 -18z"/>
<path d="M687 1176 c-16 -23 -14 -25 266 -240 l282 -217 17 22 c18 21 17 22
-43 68 -34 25 -114 87 -178 136 -64 50 -164 127 -222 173 l-107 82 -15 -24z"/>
<path d="M566 1024 c-15 -22 -16 -28 -5 -39 8 -7 135 -106 283 -220 l269 -207
19 24 c9 12 18 26 18 30 0 4 -34 33 -76 65 -42 32 -167 129 -279 216 -112 86
-205 157 -207 157 -2 0 -11 -12 -22 -26z"/>
</g>
</svg>
